<svg width="30" height="30" viewBox="0 0 30 30" fill="none" xmlns="http://www.w3.org/2000/svg">
<g id="Frame">
<path id="Vector" d="M23.75 12.5H25C25.6904 12.5 26.25 13.0596 26.25 13.75V26.25C26.25 26.9404 25.6904 27.5 25 27.5H5C4.30965 27.5 3.75 26.9404 3.75 26.25V13.75C3.75 13.0596 4.30965 12.5 5 12.5H6.25V11.25C6.25 6.41751 10.1675 2.5 15 2.5C19.8325 2.5 23.75 6.41751 23.75 11.25V12.5ZM21.25 12.5V11.25C21.25 7.79822 18.4517 5 15 5C11.5482 5 8.75 7.79822 8.75 11.25V12.5H21.25ZM13.75 17.5V22.5H16.25V17.5H13.75Z" fill="black"/>
</g>
</svg>
