<svg width="29" height="31" viewBox="0 0 29 31" fill="none" xmlns="http://www.w3.org/2000/svg">
<g id="Frame">
<path id="Vector" d="M10.8743 1.29688V3.79688H18.1243V1.29688H20.541V3.79688H25.3743C26.0417 3.79688 26.5827 4.35652 26.5827 5.04688V25.0469C26.5827 25.7372 26.0417 26.2969 25.3743 26.2969H3.62435C2.95701 26.2969 2.41602 25.7372 2.41602 25.0469V5.04688C2.41602 4.35652 2.95701 3.79688 3.62435 3.79688H8.45768V1.29688H10.8743ZM24.166 13.7969H4.83268V23.7969H24.166V13.7969ZM9.66602 16.2969V18.7969H7.24935V16.2969H9.66602ZM15.7077 16.2969V18.7969H13.291V16.2969H15.7077ZM21.7493 16.2969V18.7969H19.3327V16.2969H21.7493ZM8.45768 6.29688H4.83268V11.2969H24.166V6.29688H20.541V8.79688H18.1243V6.29688H10.8743V8.79688H8.45768V6.29688Z" fill="black" fill-opacity="0.6"/>
</g>
</svg>
