<svg width="40" height="40" viewBox="0 0 40 40" fill="none" xmlns="http://www.w3.org/2000/svg">
<g id="Frame">
<path id="Vector" d="M15.059 5.10212H24.7901L28.0338 8.34582H34.5212C35.4169 8.34582 36.143 9.07195 36.143 9.96767V32.6735C36.143 33.5693 35.4169 34.2954 34.5212 34.2954H5.3279C4.43219 34.2954 3.70605 33.5693 3.70605 32.6735V9.96767C3.70605 9.07195 4.43219 8.34582 5.3279 8.34582H11.8153L15.059 5.10212ZM19.9245 31.0517C25.2989 31.0517 29.6556 26.6949 29.6556 21.3206C29.6556 15.9463 25.2989 11.5895 19.9245 11.5895C14.5502 11.5895 10.1934 15.9463 10.1934 21.3206C10.1934 26.6949 14.5502 31.0517 19.9245 31.0517ZM19.9245 27.808C16.3417 27.808 13.4371 24.9034 13.4371 21.3206C13.4371 17.7378 16.3417 14.8332 19.9245 14.8332C23.5074 14.8332 26.4119 17.7378 26.4119 21.3206C26.4119 24.9034 23.5074 27.808 19.9245 27.808Z" fill="black"/>
</g>
</svg>
