<svg width="19" height="19" viewBox="0 0 19 19" fill="none" xmlns="http://www.w3.org/2000/svg">
<g id="Frame">
<path id="Vector" d="M2.26369 2.27801L12.2155 0.856323C12.432 0.825409 12.6324 0.975786 12.6634 1.1922C12.666 1.21074 12.6673 1.22944 12.6673 1.24817V17.752C12.6673 17.9707 12.4901 18.1479 12.2715 18.1479C12.2527 18.1479 12.234 18.1465 12.2155 18.1439L2.26369 16.7222C1.87368 16.6665 1.58398 16.3325 1.58398 15.9385V3.06172C1.58398 2.66774 1.87368 2.33372 2.26369 2.27801ZM13.459 2.37511H16.6257C17.0629 2.37511 17.4173 2.72955 17.4173 3.16678V15.8334C17.4173 16.2707 17.0629 16.6251 16.6257 16.6251H13.459V2.37511ZM8.07565 9.5001L10.2923 6.33345H8.39232L7.12565 8.14294L5.85898 6.33345H3.95898L6.17565 9.5001L3.95898 12.6668H5.85898L7.12565 10.8573L8.39232 12.6668H10.2923L8.07565 9.5001Z" fill="#217345"/>
</g>
</svg>
