<svg width="40" height="40" viewBox="0 0 40 40" fill="none" xmlns="http://www.w3.org/2000/svg">
<g id="Frame">
<path id="Vector" d="M33.0507 8.34584H7.10112V31.0517L22.1718 15.9791C22.8052 15.3457 23.8319 15.3456 24.4654 15.9789L33.0507 24.5812V8.34584ZM3.85742 6.71329C3.85742 5.82348 4.59587 5.10215 5.46597 5.10215H34.6858C35.5743 5.10215 36.2944 5.82379 36.2944 6.71329V32.6843C36.2944 33.574 35.556 34.2954 34.6858 34.2954H5.46597C4.5776 34.2954 3.85742 33.5739 3.85742 32.6843V6.71329ZM13.5885 18.0769C11.7971 18.0769 10.3448 16.6247 10.3448 14.8332C10.3448 13.0418 11.7971 11.5895 13.5885 11.5895C15.38 11.5895 16.8322 13.0418 16.8322 14.8332C16.8322 16.6247 15.38 18.0769 13.5885 18.0769Z" fill="black"/>
</g>
</svg>
