<svg width="18" height="19" viewBox="0 0 18 19" fill="none" xmlns="http://www.w3.org/2000/svg">
<path d="M9 18.2677C4.02943 18.2677 0 14.2288 0 9.24666C0 4.26446 4.02943 0.225586 9 0.225586C13.9705 0.225586 18 4.26446 18 9.24666C18 14.2288 13.9705 18.2677 9 18.2677ZM9 16.4635C12.9765 16.4635 16.2 13.2324 16.2 9.24666C16.2 5.2609 12.9765 2.0298 9 2.0298C5.02355 2.0298 1.8 5.2609 1.8 9.24666C1.8 13.2324 5.02355 16.4635 9 16.4635ZM4.5 8.34455H13.5V10.1488H4.5V8.34455Z" fill="black" fill-opacity="0.6"/>
</svg>
