<svg width="18" height="19" viewBox="0 0 18 19" fill="none" xmlns="http://www.w3.org/2000/svg">
<path d="M8.1 8.36799V4.75956H9.9V8.36799H13.5V10.1722H9.9V13.7806H8.1V10.1722H4.5V8.36799H8.1ZM9 18.2912C4.02943 18.2912 0 14.2523 0 9.2701C0 4.28789 4.02943 0.249023 9 0.249023C13.9705 0.249023 18 4.28789 18 9.2701C18 14.2523 13.9705 18.2912 9 18.2912ZM9 16.487C12.9765 16.487 16.2 13.2559 16.2 9.2701C16.2 5.28434 12.9765 2.05324 9 2.05324C5.02355 2.05324 1.8 5.28434 1.8 9.2701C1.8 13.2559 5.02355 16.487 9 16.487Z" fill="black" fill-opacity="0.6"/>
</svg>
