<svg width="20" height="20" viewBox="0 0 20 20" fill="none" xmlns="http://www.w3.org/2000/svg">
<path fill-rule="evenodd" clip-rule="evenodd" d="M15.6098 8.78049C15.6098 12.5522 12.5522 15.6098 8.78049 15.6098C5.00879 15.6098 1.95122 12.5522 1.95122 8.78049C1.95122 5.00879 5.00879 1.95122 8.78049 1.95122C12.5522 1.95122 15.6098 5.00879 15.6098 8.78049ZM14.2612 15.6409C12.759 16.8425 10.8537 17.561 8.78049 17.561C3.93116 17.561 0 13.6298 0 8.78049C0 3.93116 3.93116 0 8.78049 0C13.6298 0 17.561 3.93116 17.561 8.78049C17.561 10.8537 16.8425 12.759 15.6409 14.2612L19.7143 18.3345C20.0953 18.7155 20.0953 19.3333 19.7143 19.7143C19.3333 20.0953 18.7155 20.0953 18.3345 19.7143L14.2612 15.6409Z" fill="black" fill-opacity="0.3"/>
</svg>
