<svg width="27" height="27" viewBox="0 0 27 27" fill="none" xmlns="http://www.w3.org/2000/svg">
<path d="M12.375 12.375V7.875H14.625V12.375H19.125V14.625H14.625V19.125H12.375V14.625H7.875V12.375H12.375ZM13.5 24.75C7.28679 24.75 2.25 19.7132 2.25 13.5C2.25 7.28679 7.28679 2.25 13.5 2.25C19.7132 2.25 24.75 7.28679 24.75 13.5C24.75 19.7132 19.7132 24.75 13.5 24.75ZM13.5 22.5C18.4706 22.5 22.5 18.4706 22.5 13.5C22.5 8.52943 18.4706 4.5 13.5 4.5C8.52943 4.5 4.5 8.52943 4.5 13.5C4.5 18.4706 8.52943 22.5 13.5 22.5Z" fill="black" fill-opacity="0.6"/>
</svg>
